<svg xmlns="http://www.w3.org/2000/svg" viewBox="0 0 24 24" fill="currentColor" aria-hidden="true"><path d="M16.102 17.93l-2.697 2.607c-.466.467-1.111.662-1.823.662s-1.357-.195-1.824-.662L8.868 17.93c-.467-.467-.702-1.056-.702-1.783s.235-1.316.702-1.783l2.697-2.607c.467-.467 1.124-.681 1.824-.681.699 0 1.356.214 1.823.681l2.697 2.607c.467.467.702 1.056.702 1.783s-.235 1.316-.702 1.783zM5.898 6.07l2.697-2.607C9.062 2.996 9.707 2.8 10.419 2.8s1.357.195 1.824.662l2.697 2.607c.467.467.702 1.056.702 1.783s-.235 1.316-.702 1.783l-2.697 2.607c-.467.467-1.111.662-1.823.662s-1.357-.195-1.824-.662L5.898 9.636c-.467-.467-.702-1.056-.702-1.783S5.431 6.537 5.898 6.07z"/></svg>
